<svg width="110" height="40" viewBox="0 0 110 40" fill="none" xmlns="http://www.w3.org/2000/svg">
<g clip-path="url(#clip0_831_2520)">
<path d="M9.4118 14.6029L5.33277 7.83718L8.62498 5.92734L14.0292 14.6029H9.4118ZM0.177002 14.6029V0.380676H4.25606V14.6029H0.177002ZM3.07583 9.15781V5.90703H8.33509V9.15781H3.07583ZM9.01839 7.91845L5.22924 7.5121L9.68098 0.380676H13.9878L9.01839 7.91845Z" fill="#10335E"/>
<path d="M14.7939 14.6031L21.1921 0.380859H25.2297L31.6485 14.6031H27.3831L22.3723 2.35165H23.9874L18.9765 14.6031H14.7939ZM18.2932 11.8399L19.3492 8.87355H26.4306L27.4866 11.8399H18.2932Z" fill="#10335E"/>
<path d="M44.2594 12.8558V3.5707H40.0976L40.0354 5.11483C40.0079 5.94107 39.9526 6.71311 39.8698 7.43101C39.8008 8.14892 39.6973 8.80581 39.5592 9.40181C39.435 9.99781 39.2625 10.5125 39.0416 10.9459C38.8345 11.3658 38.5792 11.6909 38.2754 11.9212L33.9065 11.4132C34.3897 11.4268 34.7831 11.271 35.0867 10.9459C35.4042 10.6073 35.6527 10.14 35.8321 9.54403C36.0254 8.94803 36.1634 8.24371 36.2463 7.43101C36.3429 6.61831 36.4119 5.73113 36.4533 4.76943L36.619 0.380859H48.2971V12.8558H44.2594ZM33.4717 17.4678V11.4132H50.2641V17.4678H46.5164V14.6031H37.2401V17.4678H33.4717Z" fill="#10335E"/>
<path d="M53.4666 14.6029V0.380676H60.0924C61.4176 0.380676 62.5564 0.590624 63.5089 1.01052C64.4752 1.43041 65.2209 2.03993 65.745 2.83909C66.2698 3.6247 66.5318 4.5593 66.5318 5.6429C66.5318 6.71292 66.2698 7.6408 65.745 8.42638C65.2209 9.21197 64.4752 9.8215 63.5089 10.255C62.5564 10.6748 61.4176 10.8848 60.0924 10.8848H55.7442L57.5663 9.1375V14.6029H53.4666ZM57.5663 9.56416L55.7442 7.71527H59.844C60.6998 7.71527 61.3348 7.53242 61.7489 7.1667C62.1768 6.80099 62.3908 6.29306 62.3908 5.6429C62.3908 4.9792 62.1768 4.46449 61.7489 4.09877C61.3348 3.73306 60.6998 3.5502 59.844 3.5502H55.7442L57.5663 1.70131V9.56416Z" fill="#10335E"/>
<path d="M77.0238 4.91147C78.7903 4.91147 80.1569 5.2975 81.1236 6.06957C82.1032 6.84162 82.5937 7.99972 82.5937 9.54384C82.5937 11.2099 82.0482 12.4696 80.958 13.3229C79.867 14.1762 78.3762 14.6029 76.4855 14.6029H69.6318V0.380676H73.6695V4.91147H77.0238ZM76.2163 11.7178C76.9061 11.7178 77.4515 11.535 77.8521 11.1692C78.2662 10.8035 78.4732 10.2888 78.4732 9.62511C78.4732 8.94784 78.2662 8.47381 77.8521 8.20289C77.4515 7.91845 76.9061 7.77623 76.2163 7.77623H73.6695V11.7178H76.2163ZM84.1881 14.6029V0.380676H88.2257V14.6029H84.1881Z" fill="#10335E"/>
<path d="M0.259766 39.3648V25.1426H6.88562C8.2108 25.1426 9.34962 25.3525 10.3021 25.7724C11.2684 26.1923 12.0138 26.8018 12.5383 27.601C13.0629 28.3866 13.3252 29.3212 13.3252 30.4048C13.3252 31.4748 13.0629 32.4027 12.5383 33.1883C12.0138 33.9739 11.2684 34.5834 10.3021 35.0169C9.34962 35.4367 8.2108 35.6467 6.88562 35.6467H2.53741L4.35953 33.8994V39.3648H0.259766ZM4.35953 34.3261L2.53741 32.4772H6.63715C7.49302 32.4772 8.12798 32.2943 8.54209 31.9286C8.97006 31.5629 9.18398 31.055 9.18398 30.4048C9.18398 29.7411 8.97006 29.2264 8.54209 28.8607C8.12798 28.495 7.49302 28.3121 6.63715 28.3121H2.53741L4.35953 26.4632V34.3261Z" fill="#10335E"/>
<path d="M20.1933 30.6486H26.9227V33.6556H20.1933V30.6486ZM20.4832 36.2562H28.0615V39.3648H16.4248V25.1426H27.7923V28.2511H20.4832V36.2562Z" fill="#10335E"/>
<path d="M40.3568 36.175L39.4665 37.0689V25.1426H43.5041V37.0689L42.5724 36.175H48.1836L47.2519 37.0689V25.1426H51.2895V39.3648H31.6396V25.1426H35.6773V37.0689L34.7869 36.175H40.3568Z" fill="#10335E"/>
<path d="M54.1807 39.3648L60.5788 25.1426H64.6164L71.0353 39.3648H66.7699L61.759 27.1134H63.3741L58.3633 39.3648H54.1807ZM57.68 36.6016L58.736 33.6353H65.8174L66.8734 36.6016H57.68Z" fill="#10335E"/>
<path d="M73.9385 39.3651V25.1428H77.9761V30.466H81.7239V33.8387H77.9761V39.3651H73.9385ZM87.1695 39.6495C86.0378 39.6495 84.9954 39.4667 84.0429 39.1009C83.0905 38.7352 82.2551 38.2205 81.5375 37.5568C80.8335 36.8931 80.2881 36.1143 79.9018 35.2203C79.5155 34.3128 79.322 33.324 79.322 32.254C79.322 31.1839 79.5155 30.2019 79.9018 29.3079C80.2881 28.4004 80.8335 27.6148 81.5375 26.9511C82.2551 26.2874 83.0905 25.7727 84.0429 25.407C84.9954 25.0413 86.0378 24.8584 87.1695 24.8584C88.2877 24.8584 89.3229 25.0413 90.2754 25.407C91.2415 25.7727 92.0697 26.2874 92.7601 26.9511C93.4641 27.6148 94.0096 28.4004 94.3959 29.3079C94.7822 30.2019 94.9757 31.1839 94.9757 32.254C94.9757 33.324 94.7822 34.3128 94.3959 35.2203C94.0096 36.1143 93.4641 36.8931 92.7601 37.5568C92.0697 38.2205 91.2415 38.7352 90.2754 39.1009C89.3229 39.4667 88.2877 39.6495 87.1695 39.6495ZM87.1488 36.3174C87.6736 36.3174 88.1563 36.2227 88.5982 36.033C89.0402 35.8434 89.4265 35.5725 89.7578 35.2203C90.1027 34.8681 90.3654 34.4414 90.5446 33.9403C90.7381 33.4392 90.8345 32.877 90.8345 32.254C90.8345 31.6309 90.7381 31.0687 90.5446 30.5676C90.3654 30.0665 90.1027 29.6398 89.7578 29.2876C89.4265 28.9354 89.0402 28.6646 88.5982 28.4749C88.1563 28.2853 87.6801 28.1905 87.1695 28.1905C86.6448 28.1905 86.1621 28.2853 85.7201 28.4749C85.2782 28.6646 84.8848 28.9354 84.5399 29.2876C84.2086 29.6398 83.9465 30.0665 83.7531 30.5676C83.5738 31.0687 83.4839 31.6309 83.4839 32.254C83.4839 32.877 83.5738 33.4392 83.7531 33.9403C83.9465 34.4414 84.2086 34.8681 84.5399 35.2203C84.8848 35.5725 85.2782 35.8434 85.7201 36.033C86.1621 36.2227 86.6383 36.3174 87.1488 36.3174Z" fill="#10335E"/>
<path d="M101.442 39.3648V27.4384L102.353 28.3324H96.9902V25.1426H109.911V28.3324H104.569L105.48 27.4384V39.3648H101.442Z" fill="#10335E"/>
</g>
<defs>
<clipPath id="clip0_831_2520">
<rect width="110" height="40" fill="white"/>
</clipPath>
</defs>
</svg>
