<svg width="18" height="18" viewBox="0 0 18 18" fill="none" xmlns="http://www.w3.org/2000/svg">
<path d="M14.5001 17.0208H3.50008C2.83151 17.0208 2.19033 16.7552 1.71758 16.2825C1.24483 15.8097 0.979248 15.1686 0.979248 14.5V3.5C0.979248 2.83143 1.24483 2.19025 1.71758 1.7175C2.19033 1.24475 2.83151 0.979164 3.50008 0.979164H11.6217C11.8041 0.979164 11.979 1.0516 12.1079 1.18053C12.2368 1.30946 12.3092 1.48433 12.3092 1.66666C12.3092 1.849 12.2368 2.02387 12.1079 2.1528C11.979 2.28173 11.8041 2.35416 11.6217 2.35416H3.50008C3.19619 2.35416 2.90474 2.47489 2.68985 2.68977C2.47497 2.90466 2.35425 3.1961 2.35425 3.5V14.5C2.35425 14.8039 2.47497 15.0953 2.68985 15.3102C2.90474 15.5251 3.19619 15.6458 3.50008 15.6458H14.5001C14.804 15.6458 15.0954 15.5251 15.3103 15.3102C15.5252 15.0953 15.6459 14.8039 15.6459 14.5V7.4325C15.6459 7.25016 15.7183 7.07529 15.8473 6.94636C15.9762 6.81743 16.1511 6.745 16.3334 6.745C16.5158 6.745 16.6906 6.81743 16.8196 6.94636C16.9485 7.07529 17.0209 7.25016 17.0209 7.4325V14.5C17.0209 15.1686 16.7553 15.8097 16.2826 16.2825C15.8098 16.7552 15.1686 17.0208 14.5001 17.0208Z" fill="#5F5F5F"/>
<path d="M7.62507 11.9792C7.4482 11.9656 7.28367 11.8834 7.16673 11.75L4.41673 9C4.35546 8.87171 4.33547 8.72758 4.35951 8.58746C4.38355 8.44733 4.45044 8.31811 4.55097 8.21758C4.6515 8.11705 4.78073 8.05016 4.92085 8.02611C5.06098 8.00207 5.20511 8.02206 5.3334 8.08333L7.59757 10.3475L15.4167 2.58333C15.545 2.52206 15.6892 2.50207 15.8293 2.52611C15.9694 2.55016 16.0986 2.61705 16.1992 2.71758C16.2997 2.81811 16.3666 2.94733 16.3906 3.08746C16.4147 3.22758 16.3947 3.37171 16.3334 3.5L8.0834 11.75C7.96646 11.8834 7.80193 11.9656 7.62507 11.9792Z" fill="#5F5F5F"/>
</svg>
