<svg width="18" height="18" viewBox="0 0 18 18" fill="none" xmlns="http://www.w3.org/2000/svg">
<path d="M15.318 17.2298L15.3156 17.2498H15.1974C12.6933 16.9731 10.2878 16.1172 8.17146 14.7498L8.1687 14.748C6.19621 13.4917 4.52148 11.8203 3.2613 9.85033L3.2601 9.84847C1.88485 7.71943 1.0277 5.29773 0.75737 2.77761C0.732624 2.53542 0.757265 2.29072 0.829806 2.05832C0.902452 1.82558 1.02162 1.61003 1.18009 1.42474L1.18016 1.42481L1.18658 1.41699C1.34107 1.22877 1.53176 1.07347 1.74736 0.960278C1.95718 0.850125 2.18643 0.782036 2.42223 0.759766H4.99984C5.44356 0.760273 5.87249 0.919391 6.20918 1.2084C6.54471 1.49641 6.76662 1.89449 6.8352 2.33121C6.93531 3.08167 7.12214 3.81798 7.39194 4.52538C7.51464 4.8588 7.53983 5.22029 7.46452 5.56753C7.38911 5.91527 7.21606 6.23426 6.96569 6.48707C6.96546 6.4873 6.96524 6.48752 6.96501 6.48775L6.35654 7.09621L6.07354 7.37922L6.28771 7.71732C7.28814 9.2967 8.63011 10.6316 10.2148 11.6236L10.5493 11.833L10.8307 11.5562L11.4407 10.9562L11.4421 10.9548C11.695 10.7041 12.0143 10.5308 12.3623 10.4553C12.7098 10.38 13.0716 10.4053 13.4052 10.5282C14.1132 10.7955 14.8491 10.9822 15.5989 11.0847C16.0433 11.1523 16.4479 11.3793 16.7371 11.7235C17.027 12.0684 17.181 12.5074 17.1702 12.9578L17.1701 12.9578V12.9698V15.3698C17.1701 15.8617 16.9752 16.3336 16.6281 16.6822C16.281 17.0308 15.8099 17.2277 15.318 17.2298ZM2.6101 1.24977H2.59359L2.57711 1.25085C2.39231 1.26307 2.21192 1.31263 2.04682 1.39654C1.88311 1.47973 1.73782 1.59498 1.61956 1.73541C1.50343 1.87004 1.41546 2.02659 1.36087 2.19582C1.30579 2.36656 1.28583 2.54667 1.30218 2.72533L1.30214 2.72533L1.30272 2.73094C1.55319 5.16526 2.37031 7.50708 3.68864 9.56879C4.9042 11.4764 6.52257 13.0949 8.43013 14.3106C10.4922 15.642 12.8354 16.476 15.2749 16.7467L15.2884 16.7482L15.302 16.749C15.4939 16.7598 15.686 16.7307 15.8661 16.6635C16.0462 16.5963 16.2104 16.4924 16.3484 16.3585L16.3485 16.3587L16.358 16.3489C16.6077 16.0928 16.7483 15.7499 16.7501 15.3923V15.3898V13.0045C16.7557 12.6738 16.6406 12.3523 16.4262 12.1002C16.2106 11.8467 15.9094 11.681 15.5798 11.6346L15.5767 11.6342C14.7872 11.5281 14.0117 11.3358 13.264 11.061C13.0216 10.9706 12.7586 10.9507 12.5054 11.0036C12.2518 11.0565 12.0183 11.1803 11.8322 11.3606L11.8322 11.3606L11.8265 11.3662L10.8294 12.3634C10.7895 12.4015 10.7386 12.426 10.6839 12.4333C10.6289 12.4407 10.5729 12.4302 10.5243 12.4034C8.47011 11.2422 6.76983 9.54501 5.60492 7.49293L5.60495 7.49291L5.60202 7.4879C5.57516 7.44183 5.56441 7.38814 5.57146 7.33528C5.5785 7.28242 5.60295 7.23342 5.64094 7.196L5.64095 7.19601L5.64365 7.19332L6.64365 6.19332L6.64366 6.19332L6.64563 6.19133C6.82777 6.00713 6.95307 5.77442 7.00657 5.52097C7.05989 5.26843 7.03968 5.00593 6.9484 4.76455C6.67322 4.019 6.48133 3.2453 6.37623 2.45756C6.33617 2.12128 6.17295 1.81168 5.918 1.58859C5.66309 1.36555 5.33464 1.24488 4.99608 1.24977H2.6101Z" fill="#5F5F5F" stroke="#5F5F5F"/>
</svg>
