<svg width="20" height="20" viewBox="0 0 20 20" fill="none" xmlns="http://www.w3.org/2000/svg">
<path d="M9.99984 0.666504C8.15388 0.666504 6.34938 1.21389 4.81452 2.23945C3.27966 3.26501 2.08338 4.72268 1.37697 6.42813C0.670548 8.13357 0.485717 10.0102 0.845845 11.8207C1.20597 13.6312 2.09489 15.2942 3.40018 16.5995C4.70547 17.9048 6.36851 18.7937 8.179 19.1538C9.98949 19.514 11.8661 19.3291 13.5716 18.6227C15.277 17.9163 16.7347 16.72 17.7602 15.1852C18.7858 13.6503 19.3332 11.8458 19.3332 9.99984C19.3332 7.52448 18.3498 5.15051 16.5995 3.40017C14.8492 1.64983 12.4752 0.666504 9.99984 0.666504ZM14.5848 7.05984L13.0565 14.2815C12.9398 14.7948 12.6365 14.9115 12.2048 14.6782L9.87151 12.9515L8.70484 14.0365C8.64989 14.1083 8.57931 14.1666 8.49845 14.2071C8.41759 14.2475 8.32858 14.269 8.23817 14.2698L8.40151 11.9365L12.7182 8.02817C12.9165 7.86484 12.7182 7.7715 12.4382 7.93484L7.14151 11.2598L4.80817 10.5365C4.30651 10.3848 4.29484 10.0348 4.91317 9.8015L13.9082 6.3015C14.3515 6.17317 14.7248 6.42984 14.5848 7.05984Z" fill="#5F5F5F"/>
</svg>
