<svg width="26" height="26" viewBox="0 0 26 26" fill="none" xmlns="http://www.w3.org/2000/svg">
<path fill-rule="evenodd" clip-rule="evenodd" d="M13.0015 13.3593L24.3053 25.0001L25.0019 24.2827L13.6981 12.6419L24.3054 1.71849L23.6087 1.00108L13.0015 11.9245L2.39318 1L1.69653 1.71741L12.3048 12.6419L1 24.2837L1.69665 25.0012L13.0015 13.3593Z" fill="#1F1F1F"/>
<path d="M24.3053 25.0001L23.9466 25.3484L24.3053 25.7178L24.664 25.3484L24.3053 25.0001ZM13.0015 13.3593L13.3602 13.011L13.0015 12.6416L12.6428 13.011L13.0015 13.3593ZM25.0019 24.2827L25.3606 24.631L25.6989 24.2827L25.3606 23.9343L25.0019 24.2827ZM13.6981 12.6419L13.3394 12.2936L13.0012 12.6419L13.3394 12.9903L13.6981 12.6419ZM24.3054 1.71849L24.6641 2.06682L25.0023 1.71849L24.6641 1.37017L24.3054 1.71849ZM23.6087 1.00108L23.9674 0.652756L23.6087 0.283357L23.25 0.652756L23.6087 1.00108ZM13.0015 11.9245L12.6428 12.2728L13.0015 12.6422L13.3602 12.2728L13.0015 11.9245ZM2.39318 1L2.75189 0.651676L2.39318 0.282277L2.03447 0.651676L2.39318 1ZM1.69653 1.71741L1.33783 1.36909L0.999585 1.71741L1.33783 2.06574L1.69653 1.71741ZM12.3048 12.6419L12.6635 12.9903L13.0018 12.6419L12.6635 12.2936L12.3048 12.6419ZM1 24.2837L0.641293 23.9354L0.303052 24.2837L0.641293 24.6321L1 24.2837ZM1.69665 25.0012L1.33794 25.3495L1.69665 25.7189L2.05535 25.3495L1.69665 25.0012ZM24.664 24.6518L13.3602 13.011L12.6428 13.7077L23.9466 25.3484L24.664 24.6518ZM24.6432 23.9343L23.9466 24.6518L24.664 25.3484L25.3606 24.631L24.6432 23.9343ZM13.3394 12.9903L24.6432 24.631L25.3606 23.9343L14.0568 12.2936L13.3394 12.9903ZM23.9467 1.37017L13.3394 12.2936L14.0568 12.9903L24.6641 2.06682L23.9467 1.37017ZM23.25 1.3494L23.9467 2.06682L24.6641 1.37017L23.9674 0.652756L23.25 1.3494ZM13.3602 12.2728L23.9674 1.3494L23.25 0.652756L12.6428 11.5762L13.3602 12.2728ZM2.03447 1.34832L12.6428 12.2728L13.3602 11.5762L2.75189 0.651676L2.03447 1.34832ZM2.05524 2.06574L2.75189 1.34832L2.03447 0.651676L1.33783 1.36909L2.05524 2.06574ZM12.6635 12.2936L2.05524 1.36909L1.33783 2.06574L11.9461 12.9903L12.6635 12.2936ZM1.35871 24.6321L12.6635 12.9903L11.9461 12.2936L0.641293 23.9354L1.35871 24.6321ZM2.05535 24.6528L1.35871 23.9354L0.641293 24.6321L1.33794 25.3495L2.05535 24.6528ZM12.6428 13.011L1.33794 24.6528L2.05535 25.3495L13.3602 13.7077L12.6428 13.011Z" fill="black"/>
</svg>
